<svg width="20.000000" height="20.000000" viewBox="0 0 20 20" fill="none" xmlns="http://www.w3.org/2000/svg" xmlns:xlink="http://www.w3.org/1999/xlink">
	<desc>
			Created with Pixso.
	</desc>
	<defs/>
	<circle id="Ellipse 166" cx="10.000000" cy="10.000000" r="10.000000" fill="#FFFFFF" fill-opacity="0.400000"/>
	<path id="Arrow 41" d="M6.51514 12.6689L13.0422 6.14185L13.8582 6.9577L7.33105 13.4849L6.51514 12.6689ZM7.33105 13.4565L7.33105 13.4849C7.10254 13.7133 6.74365 13.7133 6.51514 13.4849C6.28674 13.2564 6.28674 12.8974 6.51514 12.6689L6.54346 12.6689L7.33105 13.4565ZM12.8733 7.12671L8.83484 7.12671C8.51172 7.12671 8.25793 6.87286 8.25793 6.54974C8.25793 6.22668 8.51172 5.97284 8.83484 5.97284L13.4502 5.97284C13.7733 5.97284 14.0271 6.22668 14.0271 6.54974L14.0271 11.1652C14.0271 11.4882 13.7733 11.7421 13.4502 11.7421C13.1272 11.7421 12.8733 11.4882 12.8733 11.1652L12.8733 7.12671Z" fill="#6A4BB4" fill-opacity="1.000000" fill-rule="evenodd"/>
</svg>
