<svg width="44.000000" height="44.000000" viewBox="0 0 44 44" fill="none" xmlns="http://www.w3.org/2000/svg" xmlns:xlink="http://www.w3.org/1999/xlink">
	<desc>
			Created with Pixso.
	</desc>
	<defs>
		<clipPath id="clip3_389">
			<rect id="ph:money" width="28.000000" height="28.000000" transform="translate(8.000000 8.000000)" fill="white" fill-opacity="0"/>
		</clipPath>
		<clipPath id="clip3_388">
			<rect id="Frame 4411" rx="8.000000" width="44.000000" height="44.000000" fill="white" fill-opacity="0"/>
		</clipPath>
	</defs>
	<rect id="Frame 4411" rx="8.000000" width="44.000000" height="44.000000" fill="#0068BC" fill-opacity="1.000000"/>
	<g clip-path="url(#clip3_388)">
		<rect id="ph:money" width="28.000000" height="28.000000" transform="translate(8.000000 8.000000)" fill="#FFFFFF" fill-opacity="0"/>
		<g clip-path="url(#clip3_389)">
			<path id="Vector" d="M22 17.625C21.1348 17.625 20.2888 17.8816 19.5693 18.3623C18.85 18.843 18.2892 19.5263 17.958 20.3257C17.627 21.1252 17.5403 22.0049 17.7091 22.8535C17.8779 23.7022 18.2946 24.4818 18.9064 25.0936C19.5183 25.7054 20.2979 26.1221 21.1465 26.291C21.9951 26.4597 22.8748 26.3731 23.6742 26.042C24.4736 25.7108 25.157 25.1501 25.6377 24.4306C26.1184 23.7112 26.375 22.8653 26.375 22C26.375 20.8397 25.9141 19.7269 25.0936 18.9064C24.2731 18.0859 23.1603 17.625 22 17.625ZM22 24.625C21.4808 24.625 20.9733 24.471 20.5416 24.1826C20.11 23.8942 19.7734 23.4842 19.5748 23.0045C19.3761 22.5249 19.3241 21.9971 19.4254 21.4879C19.5267 20.9787 19.7767 20.511 20.1438 20.1439C20.511 19.7767 20.9786 19.5267 21.4879 19.4254C21.9971 19.3242 22.5249 19.3761 23.0045 19.5748C23.4843 19.7735 23.8942 20.11 24.1826 20.5416C24.4711 20.9733 24.625 21.4808 24.625 22C24.625 22.6962 24.3484 23.3639 23.8562 23.8561C23.3639 24.3484 22.6962 24.625 22 24.625ZM34.25 14.125L9.75 14.125C9.51794 14.125 9.29541 14.2172 9.13123 14.3813C8.96716 14.5454 8.875 14.7679 8.875 15L8.875 29C8.875 29.2321 8.96716 29.4547 9.13123 29.6187C9.29541 29.7828 9.51794 29.875 9.75 29.875L34.25 29.875C34.4821 29.875 34.7046 29.7828 34.8688 29.6187C35.0328 29.4547 35.125 29.2321 35.125 29L35.125 15C35.125 14.7679 35.0328 14.5454 34.8688 14.3813C34.7046 14.2172 34.4821 14.125 34.25 14.125ZM29.1804 28.125L14.8196 28.125C14.5258 27.1315 13.988 26.2272 13.2555 25.4945C12.5228 24.7619 11.6185 24.2242 10.625 23.9305L10.625 20.0695C11.6185 19.7758 12.5228 19.2381 13.2555 18.5055C13.988 17.7728 14.5258 16.8686 14.8196 15.875L29.1804 15.875C29.4742 16.8686 30.012 17.7728 30.7445 18.5055C31.4772 19.2381 32.3815 19.7758 33.375 20.0695L33.375 23.9305C32.3815 24.2242 31.4772 24.7619 30.7445 25.4945C30.012 26.2272 29.4742 27.1315 29.1804 28.125ZM33.375 18.2123C32.3254 17.761 31.4889 16.9245 31.0376 15.875L33.375 15.875L33.375 18.2123ZM12.9624 15.875C12.5111 16.9245 11.6746 17.761 10.625 18.2123L10.625 15.875L12.9624 15.875ZM10.625 25.7877C11.6746 26.239 12.5111 27.0755 12.9624 28.125L10.625 28.125L10.625 25.7877ZM31.0376 28.125C31.4889 27.0755 32.3254 26.239 33.375 25.7877L33.375 28.125L31.0376 28.125Z" fill="#FFFFFF" fill-opacity="1.000000" fill-rule="nonzero"/>
		</g>
	</g>
</svg>
