<svg width="32.000000" height="32.000000" viewBox="0 0 32 32" fill="none" xmlns="http://www.w3.org/2000/svg" xmlns:xlink="http://www.w3.org/1999/xlink">
	<desc>
			Created with Pixso.
	</desc>
	<defs>
		<clipPath id="clip3_354">
			<rect id="iconoir:antenna-signal" width="24.000000" height="24.000000" transform="translate(4.000000 4.000000)" fill="white" fill-opacity="0"/>
		</clipPath>
		<clipPath id="clip3_353">
			<rect id="Frame 4405" rx="4.000000" width="32.000000" height="32.000000" fill="white" fill-opacity="0"/>
		</clipPath>
	</defs>
	<rect id="Frame 4405" rx="4.000000" width="32.000000" height="32.000000" fill="#FFF8E3" fill-opacity="1.000000"/>
	<g clip-path="url(#clip3_353)">
		<rect id="iconoir:antenna-signal" width="24.000000" height="24.000000" transform="translate(4.000000 4.000000)" fill="#FFBF35" fill-opacity="0"/>
		<g clip-path="url(#clip3_354)">
			<path id="Vector" d="M21.5 12C21.5 12 23 13.5 23 16C23 18.5 21.5 20 21.5 20M24.5 9C24.5 9 27 11.5 27 16C27 20.5 24.5 23 24.5 23M10.5 12C10.5 12 9 13.5 9 16C9 18.5 10.5 20 10.5 20M7.5 9C7.5 9 5 11.5 5 16C5 20.5 7.5 23 7.5 23" stroke="#FFBF35" stroke-opacity="1.000000" stroke-width="2.000000" stroke-linejoin="round"/>
			<path id="Vector" d="M16 17C16.2653 17 16.5195 16.8947 16.7072 16.7071C16.8947 16.5196 17 16.2652 17 16C17 15.7348 16.8947 15.4804 16.7072 15.2929C16.5195 15.1053 16.2653 15 16 15C15.7347 15 15.4805 15.1053 15.2928 15.2929C15.1053 15.4804 15 15.7348 15 16C15 16.2652 15.1053 16.5196 15.2928 16.7071C15.4805 16.8947 15.7347 17 16 17Z" fill="#FFBF35" fill-opacity="1.000000" fill-rule="nonzero"/>
			<path id="Vector" d="M16.7072 16.7071C16.8947 16.5196 17 16.2652 17 16C17 15.7348 16.8947 15.4804 16.7072 15.2929C16.5195 15.1053 16.2653 15 16 15C15.7347 15 15.4805 15.1053 15.2928 15.2929C15.1053 15.4804 15 15.7348 15 16C15 16.2652 15.1053 16.5196 15.2928 16.7071C15.4805 16.8947 15.7347 17 16 17C16.2653 17 16.5195 16.8947 16.7072 16.7071Z" stroke="#FFBF35" stroke-opacity="1.000000" stroke-width="2.000000" stroke-linejoin="round"/>
		</g>
	</g>
</svg>
