<svg width="32.000000" height="32.000000" viewBox="0 0 32 32" fill="none" xmlns="http://www.w3.org/2000/svg" xmlns:xlink="http://www.w3.org/1999/xlink">
	<desc>
			Created with Pixso.
	</desc>
	<defs>
		<clipPath id="clip3_359">
			<rect id="material-symbols:translate" width="24.000000" height="24.000000" transform="translate(4.000000 4.000000)" fill="white" fill-opacity="0"/>
		</clipPath>
		<clipPath id="clip3_358">
			<rect id="Frame 4406" rx="4.000000" width="32.000000" height="32.000000" fill="white" fill-opacity="0"/>
		</clipPath>
	</defs>
	<rect id="Frame 4406" rx="4.000000" width="32.000000" height="32.000000" fill="#E1F3FC" fill-opacity="1.000000"/>
	<g clip-path="url(#clip3_358)">
		<rect id="material-symbols:translate" width="24.000000" height="24.000000" transform="translate(4.000000 4.000000)" fill="#FFFFFF" fill-opacity="0"/>
		<g clip-path="url(#clip3_359)">
			<path id="Vector" d="M15.9 26L20.45 14L22.55 14L27.1 26L25 26L23.95 22.95L19.1 22.95L18 26L15.9 26ZM19.7 21.2L23.3 21.2L21.55 16.25L21.45 16.25L19.7 21.2ZM8 23L6.59998 21.6L11.65 16.55C11.0167 15.85 10.4623 15.125 9.98706 14.375C9.51172 13.625 9.09937 12.8333 8.75 12L10.85 12C11.15 12.6 11.4709 13.1417 11.813 13.625C12.155 14.1083 12.5674 14.6167 13.05 15.15C13.7833 14.35 14.3917 13.529 14.875 12.687C15.3583 11.845 15.7667 10.9493 16.1 10L5 10L5 8L12 8L12 6L14 6L14 8L21 8L21 10L18.1 10C17.75 11.1833 17.275 12.3333 16.675 13.45C16.075 14.5667 15.3334 15.6167 14.45 16.6L16.85 19.05L16.1 21.1L13 18L8 23Z" fill="#008DDD" fill-opacity="1.000000" fill-rule="nonzero"/>
		</g>
	</g>
</svg>
