<svg width="32.000000" height="32.000000" viewBox="0 0 32 32" fill="none" xmlns="http://www.w3.org/2000/svg" xmlns:xlink="http://www.w3.org/1999/xlink">
	<desc>
			Created with Pixso.
	</desc>
	<defs>
		<clipPath id="clip3_362">
			<rect id="tabler:bell" width="24.000000" height="24.000000" transform="translate(4.000000 4.000000)" fill="white" fill-opacity="0"/>
		</clipPath>
		<clipPath id="clip3_361">
			<rect id="Frame 4407" rx="4.000000" width="32.000000" height="32.000000" fill="white" fill-opacity="0"/>
		</clipPath>
	</defs>
	<rect id="Frame 4407" rx="4.000000" width="32.000000" height="32.000000" fill="#FFF8E3" fill-opacity="1.000000"/>
	<g clip-path="url(#clip3_361)">
		<rect id="tabler:bell" width="24.000000" height="24.000000" transform="translate(4.000000 4.000000)" fill="#FFBF35" fill-opacity="0"/>
		<g clip-path="url(#clip3_362)">
			<path id="Vector" d="M14.5858 7.58578C14.9608 7.21072 15.4696 7 16 7C16.5304 7 17.0392 7.21072 17.4142 7.58578C17.7893 7.96085 18 8.46957 18 9C19.1484 9.54303 20.1274 10.3883 20.832 11.4453C21.5367 12.5023 21.9404 13.7311 22 15L22 18C22.0752 18.6217 22.2954 19.2171 22.6428 19.7381C22.9902 20.2592 23.4551 20.6914 24 21L8 21C8.54492 20.6914 9.00977 20.2592 9.35718 19.7381C9.70459 19.2171 9.9248 18.6217 10 18L10 15C10.0596 13.7311 10.4633 12.5023 11.168 11.4453C11.8726 10.3883 12.8516 9.54303 14 9C14 8.46957 14.2107 7.96085 14.5858 7.58578ZM13 21L13 22C13 22.7957 13.316 23.5587 13.8787 24.1213C14.4413 24.6839 15.2043 25 16 25C16.7957 25 17.5587 24.6839 18.1213 24.1213C18.684 23.5587 19 22.7957 19 22L19 21" stroke="#FFBF35" stroke-opacity="1.000000" stroke-width="2.000000" stroke-linejoin="round" stroke-linecap="round"/>
		</g>
	</g>
</svg>
