<svg width="18.666626" height="23.333344" viewBox="0 0 18.6666 23.3333" fill="none" xmlns="http://www.w3.org/2000/svg" xmlns:xlink="http://www.w3.org/1999/xlink">
	<desc>
			Created with Pixso.
	</desc>
	<defs/>
	<path id="Vector" d="M2.33337 23.3333C1.69165 23.3333 1.14221 23.1046 0.684814 22.6473C0.227539 22.19 -0.000732422 21.6409 0 21L0 7C0 6.35834 0.228638 5.80884 0.686035 5.3515C1.14331 4.89417 1.6925 4.66589 2.33337 4.66666L4.66663 4.66666C4.66663 3.38333 5.12366 2.28473 6.03748 1.37082C6.95142 0.45694 8.05005 0 9.33337 0C10.6167 0 11.7153 0.45694 12.6292 1.37082C13.5431 2.28473 14 3.38333 14 4.66666L16.3334 4.66666C16.975 4.66666 17.5245 4.89532 17.9818 5.35266C18.4392 5.81 18.6675 6.3591 18.6666 7L18.6666 21C18.6666 21.6417 18.438 22.1912 17.9807 22.6485C17.5233 23.1058 16.9742 23.3341 16.3334 23.3333L2.33337 23.3333ZM2.33337 21L16.3334 21L16.3334 7L14 7L14 9.33334C14 9.66388 13.8881 9.94116 13.6641 10.1652C13.4399 10.3892 13.1631 10.5008 12.8334 10.5C12.5028 10.5 12.2255 10.388 12.0015 10.164C11.7775 9.94 11.6659 9.66312 11.6666 9.33334L11.6666 7L7 7L7 9.33334C7 9.66388 6.88806 9.94116 6.66406 10.1652C6.43994 10.3892 6.16309 10.5008 5.83337 10.5C5.50281 10.5 5.22546 10.388 5.00146 10.164C4.77747 9.94 4.66589 9.66312 4.66663 9.33334L4.66663 7L2.33337 7L2.33337 21ZM7 4.66666L11.6666 4.66666C11.6666 4.02499 11.438 3.47549 10.9807 3.01816C10.5233 2.56082 9.97424 2.33255 9.33337 2.33334C8.69165 2.33334 8.14221 2.56201 7.68481 3.01935C7.22754 3.47665 6.99927 4.02579 7 4.66666Z" fill="#FFFFFF" fill-opacity="1.000000" fill-rule="nonzero"/>
</svg>
