<svg width="44.000000" height="44.000000" viewBox="0 0 44 44" fill="none" xmlns="http://www.w3.org/2000/svg" xmlns:xlink="http://www.w3.org/1999/xlink">
	<desc>
			Created with Pixso.
	</desc>
	<defs>
		<clipPath id="clip3_397">
			<rect id="iconoir:shop" width="28.000000" height="28.000000" transform="translate(8.000000 8.000000)" fill="white" fill-opacity="0"/>
		</clipPath>
		<clipPath id="clip3_396">
			<rect id="Frame 4411" rx="8.000000" width="44.000000" height="44.000000" fill="white" fill-opacity="0"/>
		</clipPath>
	</defs>
	<rect id="Frame 4411" rx="8.000000" width="44.000000" height="44.000000" fill="#FFF8E3" fill-opacity="1.000000"/>
	<g clip-path="url(#clip3_396)">
		<rect id="iconoir:shop" width="28.000000" height="28.000000" transform="translate(8.000000 8.000000)" fill="#FFFFFF" fill-opacity="0"/>
		<g clip-path="url(#clip3_397)">
			<path id="Vector" d="M11.5 18.5L11.5 30.1667C11.5 30.7855 11.7458 31.379 12.1835 31.8166C12.621 32.2542 13.2145 32.5 13.8334 32.5L30.1666 32.5C30.7855 32.5 31.379 32.2542 31.8165 31.8166C32.2542 31.379 32.5 30.7855 32.5 30.1667L32.5 18.5" stroke="#FFBF35" stroke-opacity="1.000000" stroke-width="1.750000"/>
			<path id="Vector" d="M27.2417 11.5L27.8251 17.3333C27.8251 17.3333 28.9917 18.5 30.7417 18.5C31.6604 18.5012 32.5477 18.1668 33.2372 17.5597C33.3101 17.4916 33.3644 17.406 33.395 17.3111C33.4257 17.2162 33.4315 17.115 33.4122 17.0172L32.5885 12.0833C32.561 11.9203 32.4767 11.7723 32.3505 11.6656C32.2242 11.5588 32.0643 11.5002 31.899 11.5L27.2417 11.5Z" stroke="#FFBF35" stroke-opacity="1.000000" stroke-width="1.750000"/>
			<path id="Vector" d="M27.8251 17.3333C27.8251 17.3333 26.6583 18.5 24.9083 18.5C23.1583 18.5 21.9917 17.3333 21.9917 17.3333L21.9917 11.5L27.2417 11.5L27.8251 17.3333Z" stroke="#FFBF35" stroke-opacity="1.000000" stroke-width="1.750000"/>
			<path id="Vector" d="M21.9918 17.3333C21.9918 17.3333 20.8251 18.5 19.0751 18.5C17.3251 18.5 16.1584 17.3333 16.1584 17.3333L16.7418 11.5L21.9918 11.5L21.9918 17.3333Z" stroke="#FFBF35" stroke-opacity="1.000000" stroke-width="1.750000"/>
			<path id="Vector" d="M12.0856 11.5C11.9199 11.4999 11.7596 11.5587 11.6332 11.6656C11.5067 11.7727 11.4222 11.9211 11.3949 12.0845L10.5724 17.0183C10.5532 17.1161 10.5592 17.2173 10.5898 17.3122C10.6204 17.4071 10.6747 17.4927 10.7474 17.5609C11.1301 17.8992 11.9852 18.5012 13.2418 18.5012C14.9918 18.5012 16.1584 17.3345 16.1584 17.3345L16.7418 11.5L12.0856 11.5Z" stroke="#FFBF35" stroke-opacity="1.000000" stroke-width="1.750000"/>
		</g>
	</g>
</svg>
